<svg width="38" height="38" viewBox="0 0 38 38" fill="none" xmlns="http://www.w3.org/2000/svg">
<path d="M17 10H11C10.7348 10 10.4804 10.1054 10.2929 10.2929C10.1054 10.4804 10 10.7348 10 11V17C10 17.2652 10.1054 17.5196 10.2929 17.7071C10.4804 17.8946 10.7348 18 11 18H17C17.2652 18 17.5196 17.8946 17.7071 17.7071C17.8946 17.5196 18 17.2652 18 17V11C18 10.7348 17.8946 10.4804 17.7071 10.2929C17.5196 10.1054 17.2652 10 17 10ZM16 16H12V12H16V16ZM27 20H21C20.7348 20 20.4804 20.1054 20.2929 20.2929C20.1054 20.4804 20 20.7348 20 21V27C20 27.2652 20.1054 27.5196 20.2929 27.7071C20.4804 27.8946 20.7348 28 21 28H27C27.2652 28 27.5196 27.8946 27.7071 27.7071C27.8946 27.5196 28 27.2652 28 27V21C28 20.7348 27.8946 20.4804 27.7071 20.2929C27.5196 20.1054 27.2652 20 27 20ZM26 26H22V22H26V26ZM24 10C21.794 10 20 11.794 20 14C20 16.206 21.794 18 24 18C26.206 18 28 16.206 28 14C28 11.794 26.206 10 24 10ZM24 16C22.897 16 22 15.103 22 14C22 12.897 22.897 12 24 12C25.103 12 26 12.897 26 14C26 15.103 25.103 16 24 16ZM14 20C11.794 20 10 21.794 10 24C10 26.206 11.794 28 14 28C16.206 28 18 26.206 18 24C18 21.794 16.206 20 14 20ZM14 26C12.897 26 12 25.103 12 24C12 22.897 12.897 22 14 22C15.103 22 16 22.897 16 24C16 25.103 15.103 26 14 26Z" fill="white"/>
</svg>
