<svg width="38" height="40" viewBox="0 0 38 40" fill="none" xmlns="http://www.w3.org/2000/svg">
<rect y="0.5" width="38" height="39" rx="19" fill="#195396"/>
<path d="M19 10.5C18.0111 10.5 17.0444 10.7932 16.2221 11.3427C15.3999 11.8921 14.759 12.673 14.3806 13.5866C14.0022 14.5002 13.9031 15.5055 14.0961 16.4755C14.289 17.4454 14.7652 18.3363 15.4645 19.0355C16.1637 19.7348 17.0546 20.211 18.0245 20.4039C18.9945 20.5969 19.9998 20.4978 20.9134 20.1194C21.827 19.741 22.6079 19.1001 23.1573 18.2779C23.7068 17.4556 24 16.4889 24 15.5C24 14.1739 23.4732 12.9021 22.5355 11.9645C21.5979 11.0268 20.3261 10.5 19 10.5ZM19 18.5C18.4067 18.5 17.8266 18.3241 17.3333 17.9944C16.8399 17.6648 16.4554 17.1962 16.2284 16.6481C16.0013 16.0999 15.9419 15.4967 16.0576 14.9147C16.1734 14.3328 16.4591 13.7982 16.8787 13.3787C17.2982 12.9591 17.8328 12.6734 18.4147 12.5576C18.9967 12.4419 19.5999 12.5013 20.1481 12.7284C20.6962 12.9554 21.1648 13.3399 21.4944 13.8333C21.8241 14.3266 22 14.9067 22 15.5C22 16.2956 21.6839 17.0587 21.1213 17.6213C20.5587 18.1839 19.7956 18.5 19 18.5ZM28 29.5V28.5C28 26.6435 27.2625 24.863 25.9497 23.5503C24.637 22.2375 22.8565 21.5 21 21.5H17C15.1435 21.5 13.363 22.2375 12.0503 23.5503C10.7375 24.863 10 26.6435 10 28.5V29.5H12V28.5C12 27.1739 12.5268 25.9021 13.4645 24.9645C14.4021 24.0268 15.6739 23.5 17 23.5H21C22.3261 23.5 23.5979 24.0268 24.5355 24.9645C25.4732 25.9021 26 27.1739 26 28.5V29.5H28Z" fill="white"/>
</svg>
